<svg xmlns="http://www.w3.org/2000/svg" viewBox="0 0 419.57 495.28"><defs><style>.cls-1{fill:#231f20;}.cls-2{fill:#fff;}.cls-3{fill:#edd4b2;}.cls-4{fill:#d6d5d4;}.cls-10,.cls-5,.cls-7{fill:none;}.cls-5{stroke:#000;stroke-width:0.1px;}.cls-10,.cls-11,.cls-5,.cls-7,.cls-8{stroke-miterlimit:10;}.cls-6{fill:#c9e2ec;}.cls-10,.cls-11,.cls-6,.cls-7,.cls-8{stroke:#436292;}.cls-6,.cls-7{stroke-width:4.79px;}.cls-12,.cls-8{fill:#84d0f3;}.cls-9{fill:#446493;}.cls-10{stroke-width:3.22px;}.cls-11{fill:#e9e7a0;}.cls-13{fill:#436293;}</style></defs><g id="Layer_2" data-name="Layer 2"><g id="Layer_2-2" data-name="Layer 2"><path class="cls-1" d="M411.21,128.47c4.17-4.39,10.13,1.2,7.86,6.06a94.51,94.51,0,0,0-7.35,23.82c-1.23,7-2.71,13.54-6.76,19.45a41,41,0,0,1-29.59,17.71A54.26,54.26,0,0,1,384.55,209c6,12.7,4.65,26.16-.66,38.85a108.38,108.38,0,0,1-7.78,15.29,5,5,0,0,1,2,1.78c6.59,9.82,7.63,21.56,8.62,33,.92,10.8,2.37,22.52,11,30,2.74,2.37,1.39,7.67-2.21,8.35-14.78,2.83-28.78-2.72-40.82-11.08-5.68-3.94-11.49-8.3-15.27-14.2-4-6.26-4.5-13.67-4.7-20.89a5.23,5.23,0,0,1,0-.8c-3.78.29-7.63.33-11.53.28a5.4,5.4,0,0,1-1.38-.2c-.31,12.24-1.43,24.74-6.41,35.79-6.39,14.19-20,22.47-32.78,30.3Q267.9,364.6,252.65,373c0,.06,0,.13,0,.19-.69,5.29-.12,10.63.07,15.92a4.79,4.79,0,0,1,3.82.44c32.81,18,66.89,36.89,90.51,66.77A155.71,155.71,0,0,1,361.75,479l-1.17.09a4,4,0,0,0-3.62-4c-3.37-.57-6.71-1.19-10-1.83a120.36,120.36,0,0,0-8-11.18c-21.24-26.23-50.57-43.53-79.77-59.67q-3.3,35.29-5.43,70.69-5.07,1.19-10.14,2.42,2-33.44,5-66.77c-4.4,8.45-10.58,16.39-15.65,24.3l-19,29.68-9.52,14.84a67,67,0,0,1-4.15,6.59c-1.14.12-2.27.24-3.4.34q-4,.12-8,.21c.19-.32.37-.65.55-1-2.49-3.27-4.38-7.41-6.65-10.66-3-4.33-6.22-8.52-9.43-12.7-6.51-8.46-13-16.91-18.33-26.19a261.78,261.78,0,0,1-12-23.85c-2.09,23.52-1.3,47,1,70.36a61.08,61.08,0,0,1-6.17-2.05,41.32,41.32,0,0,1-4.26-2c-2.14-23.39-2.66-46.88-.23-70.38a5.55,5.55,0,0,1,.38-1.52c-15.51,7.32-30.58,15.6-44.46,25.72A242.93,242.93,0,0,0,49.05,468.1q-3.24,3.73-6.43,7.63c-5.94,2.47-11.89,4.89-17.92,6.89l-.28.1a295.91,295.91,0,0,1,33-38.18C80,422.36,106.57,406,135.33,393a5.24,5.24,0,0,1,2.18-.49c-.55-6.21,0-12.46.05-19q-15.77-8.62-31.07-18c-12.75-7.83-26.39-16.11-32.78-30.3-5-11.1-6.11-23.67-6.42-36a4.64,4.64,0,0,1-4.42,1C38.15,283.9,14.25,266.69,4,242.78c-5.07-11.85-5.85-25.17.67-36.64,6.09-10.72,16.79-17.94,27.1-24.16a5.26,5.26,0,0,1,1.54-.64,4.61,4.61,0,0,1-1-3.06q1-37.49-.61-75a4.78,4.78,0,0,1,1.62-6.81c2-1.18,4-2.33,6-3.47a4.76,4.76,0,0,1-1.85-5.13c2.59-11,9.89-20.67,17.09-29.17,6.85-8.08,15.38-15.05,26-17a5,5,0,0,1,5.38,2.4A115.35,115.35,0,0,1,108,25.32c18.08-12,39.25-18.84,60.56-22.21,22.13-3.51,45.69-4.93,67.62.53C261.4,9.92,282.8,24.76,301,42.94a3.92,3.92,0,0,1,5-1.36c10.93,4.42,23.6,8.68,31.6,17.77,7,8,14.35,18.71,16.05,29.4a5.17,5.17,0,0,1-2.1,5.11c.11,0,.21,0,.32.06,3.45.56,4.22,3.67,3.19,6.22a5.57,5.57,0,0,1,.19,1.12c1.14,17.17,2.13,34.36,1.37,51.49a103.26,103.26,0,0,1,40.11-20.34C400.88,131.38,408.18,131.67,411.21,128.47Zm-5.34,12.21-.83.15a97.33,97.33,0,0,0-15.82,4.38A92.56,92.56,0,0,0,360,163a4.86,4.86,0,0,1-4.14,1.25c-.45,4.68-1.05,9.36-1.85,14a5.07,5.07,0,0,1-.33,1.12,4.89,4.89,0,0,1,.71,1.51,4.1,4.1,0,0,1,4.39.47,123.93,123.93,0,0,1,9.83,7.59,4.84,4.84,0,0,1,4.47-3.27,30.52,30.52,0,0,0,26-17.81c2.64-6,2.85-12.81,4.38-19.1C404.14,146,405,143.34,405.87,140.68ZM384,327c-9.76-16.54-3.58-39-13.68-55.7a57.64,57.64,0,0,1-8.65,8.6,42.13,42.13,0,0,1-17.4,8.11,5.12,5.12,0,0,1,.51,2.15c.17,6.16.42,12.29,4.41,17.33,3.21,4.07,7.75,7.24,12,10.09C368,322.1,375.81,326.05,384,327Zm-9.94-81.41c4.76-10.57,6.59-22.2,1.21-32.9-4.52-9-12.24-16-20.32-21.78.17,5.07.28,10.15.23,15.22C367,209,373.1,220.85,371.43,232.62c-.38,2.67-3.81,4.17-6.15,3.5-2.83-.82-3.88-3.46-3.49-6.15a12.59,12.59,0,0,0-7-13.3,136,136,0,0,1-2.64,20.17c-3.51,16.41-11.71,29.74-21.58,42.72,9.31-.26,18.27-1.78,25.77-8.25C364.26,264.5,369.81,255,374.05,245.54Zm-28.63-77.08c2.76-21.78,1.4-43.85,0-65.7-9.35-2.32-17.75-7.17-26.3-11.55-10.94-5.62-22.64-9-34.38-12.48-21.15-6.33-42.83-14.83-64.86-17.27-21.2-2.35-43.33-.81-64.38,2.28a321.22,321.22,0,0,0-113.7,39.49q1.44,33.66.78,67.37C59.71,160.88,78.7,154.78,98,150.87c42.79-8.67,87.12-9.22,130.5-5.69,21.71,1.77,43.35,4.57,64.84,8.1C311.29,156.23,329.16,160.19,345.42,168.46Zm-.27,11.11a4.85,4.85,0,0,1-.81-.37,115.31,115.31,0,0,0-23.28-9.68,3.71,3.71,0,0,1,0,.47c.35,34.78,1.23,69.6,1,104.38,9.79-12.75,17.61-25.68,20.8-41.86,3.25-16.53,2.45-33.64,1.72-50.37A4.8,4.8,0,0,1,345.15,179.57Zm-1-87.61c0-.18-.08-.36-.11-.55-1.43-9-7.53-18.21-13.48-25C325.78,61,318.88,57.54,312,54.66c5.66,6.47,11,13.19,16,20,3,4-1.58,7.91-5.53,7.08.33.16.66.31,1,.48C330.26,85.69,336.92,89.52,344.15,92ZM320.2,80.64a5.66,5.66,0,0,1-.91-1C307,63,293,47.19,276.5,34.64c-14.09-10.7-30.14-18.89-47.56-22.38-20.71-4.15-43.36-2.37-64,1.58-35.81,6.85-72,26-87.23,60.69q10.37-4.2,21-7.69A330.52,330.52,0,0,1,161.13,53c21.57-2.68,44.12-4,65.67-.58,11.18,1.76,22,5.17,32.83,8.4L293.78,71A189.92,189.92,0,0,1,320.2,80.64Zm-8.15,198c.18-16.91-.2-33.84-.37-50.74q-.3-28.95-.59-57.89a4.69,4.69,0,0,1,.88-2.91c-10.06-2.42-20.34-4.06-30.52-5.62-41.92-6.4-84.5-9.89-126.91-7.54-25.82,1.43-52.79,4.47-77.77,12.63A4.57,4.57,0,0,1,78.11,170q-.3,28.95-.59,57.89c-.17,16.9-.55,33.83-.37,50.74.16,14.73-.51,32.07,7.08,45.27,7.46,13,22.94,20.42,35.33,27.82.8.47,1.59,1,2.39,1.41q18,10.68,36.71,20.28a29.39,29.39,0,0,1,1.92-10.09c2.83-6.94,9.72-10.79,16.2-13.77,14.5-6.69,30.48-8.32,42.06,4.52,4.9,5.44,9.92,12,12.14,19.1q5.86-3,11.68-6.17a4.82,4.82,0,0,0,6.25-2.6c.16-.35.31-.71.46-1.06q10.23-5.62,20.27-11.62c12.39-7.4,27.87-14.84,35.33-27.82C312.56,310.69,311.89,293.35,312.05,278.62ZM240.79,401.94c3.65-7.14,1.76-15.52,1.6-23.45q-5.19,2.75-10.42,5.42a35.35,35.35,0,0,1-3.46,11.38c-7,14.46-22.42,22.61-28.82,37.41-1.64,3.78-5.76,3-7.85.48a4.91,4.91,0,0,1-4-4.66c-.52-9.24-9.16-15.29-15.35-21S161.17,395,159.7,386.27c-.1-.57-.19-1.16-.28-1.76a5.16,5.16,0,0,1-2.16-.59q-5-2.54-9.91-5.15c-.2,3.44-.45,6.87-.36,10.3.15,5.18,1.67,9.59,3.8,14.26A284.13,284.13,0,0,0,164.5,430.7c5.11,8.68,11.26,16.63,17.39,24.59,2.86,3.72,5.71,7.44,8.43,11.26,1.52,2.15,3,4.32,4.42,6.54l.27.46c.36-.52.65-.92.74-1.07l4.23-6.59,8.45-13.19q8.2-12.78,16.39-25.56C230.12,418.87,236.33,410.7,240.79,401.94Zm-19.87-14.18c3.09-8.66-.69-15.59-5.78-22.44-5.81-7.82-12.5-12.68-22.62-10.71-6.8,1.32-18.23,5-22.12,11.28-2,3.3-1.58,7.83-1.5,11.57.1,4.61.55,9.29,2.7,13.45,3.57,6.93,10.6,11.38,15.93,16.83a38.14,38.14,0,0,1,8.25,11.87C203.88,408.7,216.28,400.8,220.92,387.76ZM66.86,74.81a99.93,99.93,0,0,1,12.4-22.37C72.18,54.9,66.63,60,61.72,65.81c-5.63,6.65-11.39,14.22-14,22.67Q57.39,83.41,67.31,79A4,4,0,0,1,66.86,74.81ZM68.11,170c0-.13,0-.25,0-.37a152,152,0,0,0-24,11.66,4.64,4.64,0,0,1,.33,2.33c-1.51,16.58-2.36,32.56,4.06,48.28,5.22,12.77,11,25.7,18.63,37.28C67,236.12,67.78,203,68.11,170ZM62.34,279.68a3.76,3.76,0,0,1-.36-.42C52,265.78,45.11,250,38.83,234.55a72.49,72.49,0,0,1-4.67-18.07,14.32,14.32,0,0,0-6.34,16.26c1.61,6.24-8,8.88-9.64,2.66a24.53,24.53,0,0,1,15.19-29.57c-.09-4.41.06-8.85.34-13.31-7.68,4.76-15.36,10.22-20,18-5.93,10-4.13,21.65,1,31.53C24.32,260.57,42.59,273.8,62.34,279.68Z"/><path class="cls-2" d="M405,140.83l.83-.15c-.92,2.66-1.73,5.35-2.39,8.1-1.53,6.29-1.74,13.13-4.38,19.1a30.52,30.52,0,0,1-26,17.81,4.84,4.84,0,0,0-4.47,3.27,123.93,123.93,0,0,0-9.83-7.59,4.1,4.1,0,0,0-4.39-.47,4.89,4.89,0,0,0-.71-1.51,5.07,5.07,0,0,0,.33-1.12c.8-4.67,1.4-9.35,1.85-14A4.86,4.86,0,0,0,360,163a92.56,92.56,0,0,1,29.22-17.78A97.33,97.33,0,0,1,405,140.83Z"/><path class="cls-2" d="M370.31,271.25C380.41,288,374.23,310.41,384,327c-8.18-.9-15.95-4.85-22.79-9.42-4.27-2.85-8.81-6-12-10.09-4-5-4.24-11.17-4.41-17.33a5.12,5.12,0,0,0-.51-2.15,42.13,42.13,0,0,0,17.4-8.11A57.64,57.64,0,0,0,370.31,271.25Z"/><path class="cls-3" d="M375.26,212.64c5.38,10.7,3.55,22.33-1.21,32.9-4.24,9.42-9.79,19-17.69,25.77-7.5,6.47-16.46,8-25.77,8.25,9.87-13,18.07-26.31,21.58-42.72a136,136,0,0,0,2.64-20.17,12.59,12.59,0,0,1,7,13.3c-.39,2.69.66,5.33,3.49,6.15,2.34.67,5.77-.83,6.15-3.5,1.67-11.77-4.43-23.61-16.26-26.54.05-5.07-.06-10.15-.23-15.22C363,196.66,370.74,203.66,375.26,212.64Z"/><path class="cls-1" d="M360.58,479.08a5.46,5.46,0,0,1-6.28,5.61c-13.47-2.27-26.73-6-40.33-7.51a134.93,134.93,0,0,0-37.05,1.3c-7.85,1.29-15.6,3-23.33,4.84l-.38-1.61c.16-2.88.32-5.77.5-8.65a254.73,254.73,0,0,1,34.51-6c20.17-1.86,39.21,2.47,58.7,6.2q1.9,3,3.67,6C353.93,479.35,357.26,479.32,360.58,479.08Z"/><path class="cls-1" d="M357,475.05a4,4,0,0,1,3.62,4c-3.32.24-6.65.27-10,.19q-1.77-3.07-3.67-6C350.25,473.86,353.59,474.48,357,475.05Z"/><path class="cls-2" d="M345.38,102.76c1.44,21.85,2.8,43.92,0,65.7-16.26-8.27-34.13-12.23-52.07-15.18-21.49-3.53-43.13-6.33-64.84-8.1-43.38-3.53-87.71-3-130.5,5.69-19.31,3.91-38.3,10-55.47,19.73q.66-33.69-.78-67.37a321.22,321.22,0,0,1,113.7-39.49c21-3.09,43.18-4.63,64.38-2.28,22,2.44,43.71,10.94,64.86,17.27,11.74,3.51,23.44,6.86,34.38,12.48C327.63,95.59,336,100.44,345.38,102.76Z"/><path class="cls-4" d="M344.34,179.2a4.85,4.85,0,0,0,.81.37,4.8,4.8,0,0,0-.56,2.57c.73,16.73,1.53,33.84-1.72,50.37-3.19,16.18-11,29.11-20.8,41.86.25-34.78-.63-69.6-1-104.38a3.71,3.71,0,0,0,0-.47A115.31,115.31,0,0,1,344.34,179.2Z"/><path class="cls-4" d="M344,91.41c0,.19.07.37.11.55-7.23-2.44-13.89-6.27-20.76-9.77-.33-.17-.66-.32-1-.48,4,.83,8.49-3.06,5.53-7.08-5-6.78-10.31-13.5-16-20,6.92,2.88,13.82,6.32,18.6,11.76C336.51,73.2,342.61,82.41,344,91.41Z"/><path class="cls-2" d="M338.91,462a120.36,120.36,0,0,1,8,11.18c-19.49-3.73-38.53-8.06-58.7-6.2a254.73,254.73,0,0,0-34.51,6q2.1-35.4,5.43-70.69C288.34,418.51,317.67,435.81,338.91,462Z"/><path class="cls-3" d="M319.29,79.67a5.66,5.66,0,0,0,.91,1A189.92,189.92,0,0,0,293.78,71L259.63,60.79c-10.82-3.23-21.65-6.64-32.83-8.4-21.55-3.4-44.1-2.1-65.67.58A330.52,330.52,0,0,0,98.74,66.84q-10.63,3.48-21,7.69C93,39.84,129.16,20.69,165,13.84c20.61-3.95,43.26-5.73,64-1.58,17.42,3.49,33.47,11.68,47.56,22.38C293,47.19,307,63,319.29,79.67Z"/><path class="cls-3" d="M311.68,227.88c.17,16.9.55,33.83.37,50.74-.16,14.73.51,32.07-7.08,45.27-7.46,13-22.94,20.42-35.33,27.82q-10,6-20.27,11.62c4.36-10.24,6.22-22.29,3.39-33.16-1.41-5.42-4.76-15.49-8.24-19.76-4.06-5-8.68-10.23-14-13.81a7.41,7.41,0,0,0-3.86-1.35,23.56,23.56,0,0,0,15.91-21.44c.42-13-10-20.39-18.75-28.15-4.79-4.27-11.89,2.78-7.07,7.07,5.41,4.81,14.2,10.3,15.6,17.91,1.44,7.86-3.8,14.07-11.15,15.74.18-.3.37-.59.54-.89,3.12-5.64-5.52-10.69-8.64-5.05a20.08,20.08,0,0,1-17.44,10.76c-6.2,0-16.89-4.08-19.22-10.54-2.16-6-11.83-3.42-9.64,2.65.12.32.26.62.39.94-4.79-2.45-6.26-8.39-6.42-13.67-.23-7.21,3.49-10.08,9.27-13.38,5.58-3.19.55-11.84-5-8.64-9.57,5.47-15,12.26-14.13,23.79A30.21,30.21,0,0,0,155,286.1c-11.07,3.32-23.27,14.76-29.67,22.75-3.7,4.61-7.6,10-9.51,15.67-2.3,6.81-1.58,14-.65,21a4.56,4.56,0,0,0,4.52,4.13,5.25,5.25,0,0,0,2.36,3.29l-.13.21c-.8-.46-1.59-.94-2.39-1.41-12.39-7.4-27.87-14.84-35.33-27.82-7.59-13.2-6.92-30.54-7.08-45.27-.18-16.91.2-33.84.37-50.74q.3-28.95.59-57.89a4.57,4.57,0,0,0-1.34-3.44c25-8.16,52-11.2,77.77-12.63,42.41-2.35,85,1.14,126.91,7.54,10.18,1.56,20.46,3.2,30.52,5.62a4.69,4.69,0,0,0-.88,2.91Q311.38,198.94,311.68,227.88Zm-23.9,2.77A8,8,0,0,0,293.57,220c-1.76-4.8-7.23-7.24-11.59-9.13-19.33-8.35-41.86-4.93-58.22,8.08-5,4,2.08,11,7.07,7.07a46.82,46.82,0,0,1,30.68-9.72c1.53.05,3.06.19,4.58.39C262.65,227,280.32,232.06,287.78,230.65Zm-5.56-51.18c5.78,2.78,10.84-5.84,5-8.63-10.86-5.23-23.82-8.2-35.56-4.08-6.47,2.27-10.77,7.15-16.67,10.29-3.56,1.89-16.33,5.69-19.95,2.15l-.63-.87c-3.84-5.1-11.46-.86-8.63,5a11.29,11.29,0,0,0,2.35,3.29c3,4.3,6.19,9,10.73,11.26,5.48,2.75,11.8,1.19,17.1-1.17,12.46-5.55,24.57-16.79,38.85-16.57a4.45,4.45,0,0,0,4.08-2.15C280.05,178.48,281.15,179,282.22,179.47Zm-98.63,6.95c2.83-5.9-4.79-10.14-8.63-5q-.32.42-.63.87c-3.61,3.54-16.39-.26-20-2.15-5.9-3.14-10.19-8-16.66-10.29-11.75-4.12-24.71-1.15-35.57,4.08-5.79,2.79-.73,11.41,5,8.63,1.07-.51,2.17-1,3.28-1.43a4.43,4.43,0,0,0,4.08,2.15c14.28-.22,26.4,11,38.86,16.57,5.29,2.36,11.61,3.92,17.1,1.17,4.53-2.27,7.74-6.95,10.73-11.26A11.46,11.46,0,0,0,183.59,186.42Zm-21.05,44.23A8,8,0,0,0,168.33,220c-1.76-4.8-7.23-7.24-11.59-9.13-19.33-8.35-41.86-4.93-58.22,8.08-5,4,2.08,11,7.07,7.07a46.82,46.82,0,0,1,30.68-9.72c1.53.05,3.06.19,4.58.39C137.41,227,155.08,232.06,162.54,230.65Z"/><path class="cls-1" d="M293.57,220a8,8,0,0,1-5.79,10.69c-7.46,1.41-25.13-3.69-21.69-14-1.52-.2-3-.34-4.58-.39A46.82,46.82,0,0,0,230.83,226c-5,4-12.1-3.06-7.07-7.07,16.36-13,38.89-16.43,58.22-8.08C286.34,212.72,291.81,215.16,293.57,220Z"/><path class="cls-1" d="M287.27,170.84c5.79,2.79.73,11.41-5,8.63-1.07-.52-2.17-1-3.28-1.43a4.45,4.45,0,0,1-4.08,2.15c-14.28-.22-26.39,11-38.85,16.57-5.3,2.36-11.62,3.92-17.1,1.17-4.54-2.27-7.75-7-10.73-11.26a11.29,11.29,0,0,1-2.35-3.29c-2.83-5.91,4.79-10.15,8.63-5l.63.87c3.62,3.54,16.39-.26,19.95-2.15,5.9-3.14,10.2-8,16.67-10.29C263.45,162.64,276.41,165.61,287.27,170.84Z"/><path class="cls-1" d="M253.71,473.06c-.18,2.88-.34,5.77-.5,8.65-3.34.21-6.69.42-10,.61,0-.5,0-1,.08-1.51.1-1.78.2-3.56.31-5.33Q248.64,474.25,253.71,473.06Z"/><path class="cls-1" d="M253.21,481.71l.38,1.61c-13.77,3.27-27.45,6.93-41.4,9.28-21.85,3.69-44.5,3.82-66.18-1.11a68.56,68.56,0,0,1-12.74-4.27l1-2.29c3.37.18,6.73.33,10.1.46v-1c-.13-1.24-.26-2.49-.38-3.73,3,.84,6,1.5,9,2.07a158.05,158.05,0,0,0,43.88,1.73l3.2-.1.2-.24a219.69,219.69,0,0,0,22-3.62c7.15-1.54,14.27-3.29,21.39-5-.11,1.77-.21,3.55-.31,5.33,0,.5,0,1-.08,1.51C246.52,482.13,249.87,481.92,253.21,481.71Z"/><path class="cls-1" d="M252.76,330.17c2.83,10.87,1,22.92-3.39,33.16-2.23,1.24-4.46,2.46-6.71,3.66-2.48-.84-4.36-3.37-3-6.45.22-.5.43-1,.64-1.51a4.43,4.43,0,0,1-3.15-3.91c-1-7.91-6.42-13.32-12.53-17.83-2,2.67-5.71,1.93-7.77-.18-7.13-7.29-15.63-13.5-26-14.51a5.23,5.23,0,0,1-1.77-.49,131.8,131.8,0,0,0-29.69,8.05,5.15,5.15,0,0,1-6.3-2.23,83.9,83.9,0,0,0-11.67,7.4c-5.56,4-10,8.86-12.25,15.41-1.19,3.45-4.66,3.7-7.07,2.17a5.25,5.25,0,0,1-2.36-3.29,4.56,4.56,0,0,1-4.52-4.13c-.93-7-1.65-14.16.65-21,1.91-5.65,5.81-11.06,9.51-15.67,6.4-8,18.6-19.43,29.67-22.75a18.86,18.86,0,0,0,9.46,7.91,4.31,4.31,0,0,1-2.83,1.07c-9.74.39-22.43,12.44-28.37,19.86-3,3.75-6.29,8-7.9,12.61a25.38,25.38,0,0,0-1,10.64,46.27,46.27,0,0,1,10.86-10.77c6.7-4.83,15.32-10.59,23.59-11.86a4.93,4.93,0,0,1,4.92,2.35,143.2,143.2,0,0,1,23.93-5.71,4.66,4.66,0,0,1,3.1.51,5.42,5.42,0,0,1,1.28,0c10.19,1,18.79,5.91,26.32,12.34a5.34,5.34,0,0,1,6,0c7.77,5.18,15.53,11.06,19.74,19.18a30.85,30.85,0,0,0-1.43-13c-1.64-4.58-5.93-14.49-9-18.21s-7.44-6.08-10.54-9.88c-2.23-2.74-1.59-5.62.42-7a22,22,0,0,0,3-.84,7.41,7.41,0,0,1,3.86,1.35c5.35,3.58,10,8.82,14,13.81C248,314.68,251.35,324.75,252.76,330.17Z"/><path class="cls-1" d="M249.37,363.33c-.15.35-.3.71-.46,1.06a4.82,4.82,0,0,1-6.25,2.6C244.91,365.79,247.14,364.57,249.37,363.33Z"/><path class="cls-2" d="M242.67,331.18a30.85,30.85,0,0,1,1.43,13c-4.21-8.12-12-14-19.74-19.18a5.34,5.34,0,0,0-6,0c-7.53-6.43-16.13-11.35-26.32-12.34a5.42,5.42,0,0,0-1.28,0,4.66,4.66,0,0,0-3.1-.51,143.2,143.2,0,0,0-23.93,5.71,4.93,4.93,0,0,0-4.92-2.35c-8.27,1.27-16.89,7-23.59,11.86a46.27,46.27,0,0,0-10.86,10.77,25.38,25.38,0,0,1,1-10.64c1.61-4.57,4.9-8.86,7.9-12.61,5.94-7.42,18.63-19.47,28.37-19.86a4.31,4.31,0,0,0,2.83-1.07,18,18,0,0,0,2.15.68,4.79,4.79,0,0,0,5.76-2.95,35.93,35.93,0,0,0,21.73,9.41,29.42,29.42,0,0,0,22.92-9.36,5.25,5.25,0,0,0,6.16,4.38l.38-.08c-2,1.38-2.65,4.26-.42,7,3.1,3.8,7.45,6.08,10.54,9.88S241,326.6,242.67,331.18Z"/><path class="cls-2" d="M248.57,408.71q-3,33.35-5,66.77c-7.12,1.73-14.24,3.48-21.39,5a219.69,219.69,0,0,1-22,3.62,67,67,0,0,0,4.15-6.59l9.52-14.84,19-29.68C238,425.1,244.17,417.16,248.57,408.71Z"/><path class="cls-1" d="M223.79,245.66c8.73,7.76,19.17,15.18,18.75,28.15a23.56,23.56,0,0,1-15.91,21.44,4.9,4.9,0,0,0-3,.84l-.38.08a5.25,5.25,0,0,1-6.16-4.38,29.42,29.42,0,0,1-22.92,9.36,35.93,35.93,0,0,1-21.73-9.41,4.79,4.79,0,0,1-5.76,2.95,18,18,0,0,1-2.15-.68c2.86-2.6.92-9-4.25-8.84a20.88,20.88,0,0,0-5.21.93,30.21,30.21,0,0,1-4.2-13.75C150,260.82,155.39,254,165,248.56c5.6-3.2,10.63,5.45,5,8.64-5.78,3.3-9.5,6.17-9.27,13.38.16,5.28,1.63,11.22,6.42,13.67-.13-.32-.27-.62-.39-.94-2.19-6.07,7.48-8.66,9.64-2.65,2.33,6.46,13,10.54,19.22,10.54a20.08,20.08,0,0,0,17.44-10.76c3.12-5.64,11.76-.59,8.64,5.05-.17.3-.36.59-.54.89,7.35-1.67,12.59-7.88,11.15-15.74-1.4-7.61-10.19-13.1-15.6-17.91C211.9,248.44,219,241.39,223.79,245.66Z"/><path class="cls-3" d="M242.39,378.49c.16,7.93,2.05,16.31-1.6,23.45-4.46,8.76-10.67,16.93-16,25.2q-8.19,12.78-16.39,25.56L200,465.89l-4.23,6.59c-.09.15-.38.55-.74,1.07l-.27-.46c-1.42-2.22-2.9-4.39-4.42-6.54-2.72-3.82-5.57-7.54-8.43-11.26-6.13-8-12.28-15.91-17.39-24.59a284.13,284.13,0,0,1-13.71-27.37c-2.13-4.67-3.65-9.08-3.8-14.26-.09-3.43.16-6.86.36-10.3q4.93,2.61,9.91,5.15a5.16,5.16,0,0,0,2.16.59c.09.6.18,1.19.28,1.76,1.47,8.69,6.51,15.33,12.81,21.2s14.83,11.81,15.35,21a4.91,4.91,0,0,0,4,4.66c2.09,2.56,6.21,3.3,7.85-.48,6.4-14.8,21.78-22.95,28.82-37.41A35.35,35.35,0,0,0,232,383.91Q237.21,381.24,242.39,378.49Z"/><path class="cls-3" d="M240.32,359c-.21.51-.42,1-.64,1.51-1.38,3.08.5,5.61,3,6.45q-5.81,3.13-11.68,6.17c-2.22-7.09-7.24-13.66-12.14-19.1-11.58-12.84-27.56-11.21-42.06-4.52-6.48,3-13.37,6.83-16.2,13.77a29.39,29.39,0,0,0-1.92,10.09Q140,363.77,122,353.12l.13-.21c2.41,1.53,5.88,1.28,7.07-2.17,2.26-6.55,6.69-11.39,12.25-15.41a83.9,83.9,0,0,1,11.67-7.4,5.15,5.15,0,0,0,6.3,2.23,131.8,131.8,0,0,1,29.69-8.05,5.23,5.23,0,0,0,1.77.49c10.41,1,18.91,7.22,26,14.51,2.06,2.11,5.73,2.85,7.77.18,6.11,4.51,11.56,9.92,12.53,17.83A4.43,4.43,0,0,0,240.32,359Z"/><path class="cls-1" d="M223.59,296.09a4.9,4.9,0,0,1,3-.84A22,22,0,0,1,223.59,296.09Z"/><path class="cls-2" d="M215.14,365.32c5.09,6.85,8.87,13.78,5.78,22.44-4.64,13-17,20.94-25.14,31.85a38.14,38.14,0,0,0-8.25-11.87c-5.33-5.45-12.36-9.9-15.93-16.83-2.15-4.16-2.6-8.84-2.7-13.45-.08-3.74-.53-8.27,1.5-11.57,3.89-6.31,15.32-10,22.12-11.28C202.64,352.64,209.33,357.5,215.14,365.32Z"/><path class="cls-1" d="M200.23,484.12l-.2.24-3.2.1C198,484.36,199.09,484.24,200.23,484.12Z"/><path class="cls-2" d="M188.79,484.67q4-.09,8-.21A158.05,158.05,0,0,1,153,482.73c-3-.57-6-1.23-9-2.07-2.34-23.38-3.13-46.84-1-70.36a261.78,261.78,0,0,0,12,23.85c5.32,9.28,11.82,17.73,18.33,26.19,3.21,4.18,6.42,8.37,9.43,12.7,2.27,3.25,4.16,7.39,6.65,10.66C189.16,484,189,484.35,188.79,484.67Z"/><path class="cls-1" d="M175,181.37c3.84-5.09,11.46-.85,8.63,5a11.46,11.46,0,0,1-2.34,3.29c-3,4.31-6.2,9-10.73,11.26-5.49,2.75-11.81,1.19-17.1-1.17C141,194.26,128.84,183,114.56,183.23a4.43,4.43,0,0,1-4.08-2.15c-1.11.45-2.21.92-3.28,1.43-5.78,2.78-10.84-5.84-5-8.63,10.86-5.23,23.82-8.2,35.57-4.08,6.47,2.27,10.76,7.15,16.66,10.29,3.56,1.89,16.34,5.69,20,2.15Q174.65,181.79,175,181.37Z"/><path class="cls-1" d="M168.33,220a8,8,0,0,1-5.79,10.69c-7.46,1.41-25.13-3.69-21.69-14-1.52-.2-3-.34-4.58-.39A46.82,46.82,0,0,0,105.59,226c-5,4-12.1-3.06-7.07-7.07,16.36-13,38.89-16.43,58.22-8.08C161.1,212.72,166.57,215.16,168.33,220Z"/><path class="cls-1" d="M160.24,285.17c5.17-.2,7.11,6.24,4.25,8.84A18.86,18.86,0,0,1,155,286.1,20.88,20.88,0,0,1,160.24,285.17Z"/><path class="cls-1" d="M144.36,484.39v1c-3.37-.13-6.73-.28-10.1-.46v-1c-.26-2.43-.49-4.86-.71-7.3a41.32,41.32,0,0,0,4.26,2,61.08,61.08,0,0,0,6.17,2.05C144.1,481.9,144.23,483.15,144.36,484.39Z"/><path class="cls-1" d="M134.26,483.93v1l-1,2.29a119.49,119.49,0,0,1-15.21-8.38c-9.09-5.74-19-7.7-29.63-6.89-21.61,1.62-40.87,13.6-61.07,20.32-6,2-8.65-7.33-2.94-9.55l-.74,1q5.61,1.08,11.31,1.67,3.73-4.95,7.63-9.69c17-7,33.86-14.49,52.57-14a54.37,54.37,0,0,1,27.92,8.42c3.48,2.2,6.83,4.52,10.44,6.43C133.77,479.07,134,481.5,134.26,483.93Z"/><path class="cls-2" d="M133.7,404.73a5.55,5.55,0,0,0-.38,1.52c-2.43,23.5-1.91,47,.23,70.38-3.61-1.91-7-4.23-10.44-6.43a54.37,54.37,0,0,0-27.92-8.42c-18.71-.54-35.62,6.91-52.57,14q3.2-3.89,6.43-7.63a242.93,242.93,0,0,1,40.19-37.65C103.12,420.33,118.19,412.05,133.7,404.73Z"/><path class="cls-4" d="M79.26,52.44a99.93,99.93,0,0,0-12.4,22.37A4,4,0,0,0,67.31,79q-9.91,4.44-19.55,9.51c2.57-8.45,8.33-16,14-22.67C66.63,60,72.18,54.9,79.26,52.44Z"/><path class="cls-4" d="M68.13,169.62c0,.12,0,.24,0,.37-.33,33-1.14,66.13-1,99.18-7.64-11.58-13.41-24.51-18.63-37.28-6.42-15.72-5.57-31.7-4.06-48.28a4.64,4.64,0,0,0-.33-2.33A152,152,0,0,1,68.13,169.62Z"/><path class="cls-3" d="M62,279.26a3.76,3.76,0,0,0,.36.42c-19.75-5.88-38-19.11-47.64-37.58-5.15-9.88-6.95-21.58-1-31.53,4.67-7.83,12.35-13.29,20-18-.28,4.46-.43,8.9-.34,13.31A24.53,24.53,0,0,0,18.18,235.4c1.6,6.22,11.25,3.58,9.64-2.66a14.32,14.32,0,0,1,6.34-16.26,72.49,72.49,0,0,0,4.67,18.07C45.11,250,52,265.78,62,279.26Z"/><path class="cls-1" d="M42.62,475.73q-3.88,4.74-7.63,9.69-5.7-.59-11.31-1.67l.74-1,.28-.1C30.73,480.62,36.68,478.2,42.62,475.73Z"/><path class="cls-5" d="M253.21,481.71c.16-2.88.32-5.77.5-8.65q2.1-35.4,5.43-70.69c29.2,16.14,58.53,33.44,79.77,59.67a120.36,120.36,0,0,1,8,11.18q1.9,3,3.67,6"/><g id="cherry-blossom"><g id="petals"><g id="petal-top-left"><path class="cls-6" d="M245.6,60.51l-2.79-.13a92.5,92.5,0,0,1-13.64-2.2A165.13,165.13,0,0,0,198,54.66q-3.87,12.41-2.75,31.06c.37,6.27,9.66,12.67,15.65,10.8q37.41-11.68,41.28-34.13A51.66,51.66,0,0,0,245.6,60.51Z"/><g id="bloom"><g id="nodes"><line class="cls-7" x1="221.13" y1="63.14" x2="203.37" y2="89.37"/><path class="cls-8" d="M226,57.55q-3.17-.6-6.35-1.08A6,6,0,1,0,226,57.55Z"/><path class="cls-9" d="M226,57.55q-3.17-.6-6.35-1.08A6,6,0,1,0,226,57.55Zm-1,6.58a3.78,3.78,0,1,1-.88-5.27A3.79,3.79,0,0,1,225,64.13Z"/></g></g><g id="bloom-2" data-name="bloom"><g id="nodes-2" data-name="nodes"><line class="cls-10" x1="220.02" y1="81.8" x2="200.81" y2="91.01"/><circle class="cls-11" cx="220.9" cy="81.37" r="4"/><path class="cls-9" d="M222.54,85a4,4,0,1,0-5.3-2A4,4,0,0,0,222.54,85Zm-4-2.63a2.54,2.54,0,1,1,3.36,1.27A2.55,2.55,0,0,1,218.56,82.4Z"/></g></g><g id="bloom-3" data-name="bloom"><g id="nodes-3" data-name="nodes"><line class="cls-10" x1="204.77" y1="70.72" x2="201.64" y2="91.79"/><circle class="cls-11" cx="204.91" cy="69.75" r="4"/><path class="cls-9" d="M208.85,70.44a4,4,0,1,0-4.63,3.26A4,4,0,0,0,208.85,70.44Zm-4.4,1.82a2.54,2.54,0,1,1,2.94-2.07A2.54,2.54,0,0,1,204.45,72.26Z"/></g></g></g><g id="petal-bottom-left"><path class="cls-6" d="M165,57.23c-9.16,1.27-18,4-27.11,5.42q4.76,21,40.12,32.92c5.94,2,15.37-4.19,15.89-10.45,1-12.09.35-22.21-1.9-30.42A249,249,0,0,0,165,57.23Z"/><g id="bloom-4" data-name="bloom"><line class="cls-7" x1="168.05" y1="63.12" x2="185.54" y2="88.49"/><g id="nodes-4" data-name="nodes"><circle class="cls-12" cx="167.79" cy="63.83" r="5.95"/><path class="cls-9" d="M172.63,67.3a6,6,0,1,0-8.3,1.38A5.95,5.95,0,0,0,172.63,67.3Zm-7.07-.4a3.78,3.78,0,1,1,5.27-.88A3.79,3.79,0,0,1,165.56,66.9Z"/></g></g><g id="bloom-5" data-name="bloom"><g id="nodes-5" data-name="nodes"><line class="cls-10" x1="184.17" y1="70.97" x2="187.59" y2="91.99"/><circle class="cls-11" cx="184.02" cy="70.01" r="4"/><path class="cls-9" d="M188,69.46A4,4,0,1,0,184.56,74,4,4,0,0,0,188,69.46Zm-3.65,3.07a2.54,2.54,0,1,1,2.17-2.86A2.54,2.54,0,0,1,184.34,72.53Z"/></g></g><g id="bloom-6" data-name="bloom"><g id="nodes-6" data-name="nodes"><line class="cls-10" x1="169.24" y1="82.47" x2="188.56" y2="91.42"/><circle class="cls-11" cx="168.35" cy="82.06" r="4"/><path class="cls-9" d="M170.13,78.47a4,4,0,1,0,1.81,5.36A4,4,0,0,0,170.13,78.47Zm.5,4.74a2.54,2.54,0,1,1-1.15-3.41A2.55,2.55,0,0,1,170.63,83.21Z"/></g></g></g><g id="petal-bottom-right"><path class="cls-6" d="M183.3,116.64q-33.56,47.16-66.71,17.56a15.39,15.39,0,0,1-4.19-14.15q11.66-42.89,65.5-21.64C183.73,100.71,186.94,111.53,183.3,116.64Z"/><g id="bloom-7" data-name="bloom"><line class="cls-7" x1="149.68" y1="116.66" x2="178.82" y2="106.88"/><g id="nodes-7" data-name="nodes"><circle class="cls-8" cx="147.25" cy="117.48" r="5.95"/><path class="cls-9" d="M152.09,120.94a6,6,0,1,0-8.31,1.38A6,6,0,0,0,152.09,120.94Zm-7.08-.4a3.78,3.78,0,1,1,5.28-.88A3.79,3.79,0,0,1,145,120.54Z"/></g></g><g id="bloom-8" data-name="bloom"><g id="nodes-8" data-name="nodes"><line class="cls-10" x1="161.38" y1="102.54" x2="182.31" y2="106.5"/><circle class="cls-11" cx="160.42" cy="102.36" r="4"/><path class="cls-9" d="M161.27,98.45a4,4,0,1,0,3.07,4.75A4,4,0,0,0,161.27,98.45Zm1.64,4.47a2.54,2.54,0,1,1-1.95-3A2.54,2.54,0,0,1,162.91,102.92Z"/></g></g><g id="bloom-9" data-name="bloom"><g id="nodes-9" data-name="nodes"><line class="cls-10" x1="167.1" y1="120.5" x2="182.1" y2="105.39"/><circle class="cls-11" cx="166.41" cy="121.2" r="4"/><path class="cls-9" d="M163.64,118.3a4,4,0,1,0,5.66.13A4,4,0,0,0,163.64,118.3Zm4.63,1.15a2.54,2.54,0,1,1-3.6-.08A2.53,2.53,0,0,1,168.27,119.45Z"/></g></g></g><g id="petal-top-right"><path class="cls-6" d="M195.69,143.25c5.63,0,11.29.14,16.9.57a53.42,53.42,0,0,1,8.49,1.46q-4-13.35-17.53-29.09c-4.09-4.75-15.36-4.22-19,.9q-11,15.51-14.17,28.24A141.94,141.94,0,0,1,195.69,143.25Z"/><g id="bloom-10" data-name="bloom"><path class="cls-7" d="M195.4,142.54l-.62-24.1"/></g><g id="bloom-11" data-name="bloom"><g id="nodes-10" data-name="nodes"><line class="cls-10" x1="185.78" y1="133.75" x2="195.16" y2="114.63"/><circle class="cls-11" cx="185.35" cy="134.63" r="4"/><path class="cls-9" d="M181.8,132.77a4,4,0,1,0,5.41-1.69A4,4,0,0,0,181.8,132.77Zm4.75-.39a2.54,2.54,0,1,1-3.43,1.07A2.54,2.54,0,0,1,186.55,132.38Z"/></g></g><g id="bloom-12" data-name="bloom"><g id="nodes-11" data-name="nodes"><line class="cls-10" x1="204.62" y1="133.01" x2="194.03" y2="114.53"/><circle class="cls-11" cx="205.1" cy="133.86" r="4"/><path class="cls-9" d="M201.58,135.76a4,4,0,1,0,1.62-5.43A4,4,0,0,0,201.58,135.76Zm2.33-4.16a2.55,2.55,0,1,1-1,3.45A2.56,2.56,0,0,1,203.91,131.6Z"/></g></g></g><g id="petal-top"><path class="cls-6" d="M210.87,98q55-17.85,64,25.68a15.39,15.39,0,0,1-5.06,13.86Q234.9,165,204.34,115.88C201,110.56,204.9,100,210.87,98Z"/><g id="bloom-13" data-name="bloom"><line class="cls-7" x1="207.49" y1="107.23" x2="238.6" y2="117.78"/><g id="nodes-12" data-name="nodes"><circle class="cls-12" cx="239.89" cy="118.66" r="5.95"/><path class="cls-9" d="M244.74,122.13a6,6,0,1,0-8.31,1.38A6,6,0,0,0,244.74,122.13Zm-7.08-.4a3.78,3.78,0,1,1,5.27-.88A3.79,3.79,0,0,1,237.66,121.73Z"/></g></g><g id="bloom-14" data-name="bloom"><g id="nodes-13" data-name="nodes"><line class="cls-10" x1="220.86" y1="122.17" x2="206.33" y2="106.59"/><circle class="cls-11" cx="221.52" cy="122.88" r="4"/><path class="cls-9" d="M218.52,125.54a4,4,0,1,0,.35-5.65A4,4,0,0,0,218.52,125.54Zm1.33-4.58a2.54,2.54,0,1,1-.22,3.59A2.55,2.55,0,0,1,219.85,121Z"/></g></g><g id="bloom-15" data-name="bloom"><g id="nodes-14" data-name="nodes"><line class="cls-10" x1="226.88" y1="104.31" x2="205.84" y2="107.61"/><circle class="cls-11" cx="227.84" cy="104.16" r="4"/><path class="cls-9" d="M228.36,108.13a4,4,0,1,0-4.49-3.45A4,4,0,0,0,228.36,108.13Zm-3.05-3.66a2.54,2.54,0,1,1,2.85,2.19A2.55,2.55,0,0,1,225.31,104.47Z"/></g></g></g></g><g id="center"><g id="nodes-15" data-name="nodes"><circle class="cls-12" cx="194.08" cy="102.33" r="16.82"/><path class="cls-9" d="M207.76,112.11A16.81,16.81,0,1,0,184.3,116,16.82,16.82,0,0,0,207.76,112.11Zm-20-1.13a10.67,10.67,0,1,1,14.89-2.47A10.67,10.67,0,0,1,187.78,111Z"/></g></g></g><path class="cls-13" d="M80.25,146.58c-11.53-14.67-7.78-34.7-3.2-51.19,1.72-6.21-7.92-8.86-9.65-2.66-5.71,20.58-8.27,43.06,5.78,60.92C77.15,158.71,84.18,151.59,80.25,146.58Z"/><path class="cls-13" d="M315.4,91.61c-4.65-4.45-11.74,2.61-7.08,7.07,5.76,5.51,5,15.29,5.11,22.62.1,8.73-.8,17.88-7.1,24.48-4.44,4.66,2.62,11.74,7.07,7.08,8.19-8.58,10.16-20.08,10-31.56C323.32,111,323.35,99.22,315.4,91.61Z"/><path class="cls-13" d="M370.63,167.53c-6.44,0-6.45,10,0,10S377.07,167.53,370.63,167.53Z"/><path class="cls-13" d="M380.68,152.45c-6.43,0-6.44,10,0,10S387.13,152.45,380.68,152.45Z"/><path class="cls-13" d="M387.38,167.53c-6.43,0-6.44,10,0,10S393.83,167.53,387.38,167.53Z"/><path class="cls-13" d="M396.6,148.26c-6.43,0-6.44,10,0,10S403.05,148.26,396.6,148.26Z"/><path class="cls-13" d="M355.54,291.54c-6.43,0-6.44,10,0,10S362,291.54,355.54,291.54Z"/><path class="cls-13" d="M369.79,284.84c-6.44,0-6.45,10,0,10S376.23,284.84,369.79,284.84Z"/><path class="cls-13" d="M368.11,303.28c-6.43,0-6.44,10,0,10S374.56,303.28,368.11,303.28Z"/><path class="cls-13" d="M336.47,106.79c-6.44,0-6.45,10,0,10S342.91,106.79,336.47,106.79Z"/><path class="cls-13" d="M337.11,126.45c-6.43,0-6.45,10,0,10S343.55,126.45,337.11,126.45Z"/><path class="cls-13" d="M335.94,145.62c-6.44,0-6.45,10,0,10S342.38,145.62,335.94,145.62Z"/><path class="cls-13" d="M53.89,104.55c-6.43,0-6.44,10,0,10S60.34,104.55,53.89,104.55Z"/><path class="cls-13" d="M53.89,125.06c-6.43,0-6.44,10,0,10S60.34,125.06,53.89,125.06Z"/><path class="cls-13" d="M55.74,145.62c-6.44,0-6.45,10,0,10S62.18,145.62,55.74,145.62Z"/><path class="cls-1" d="M320.24,79.85a189.2,189.2,0,0,0-26.43-9.63Q276.74,65.09,259.66,60c-10.81-3.24-21.64-6.65-32.82-8.41-21.55-3.39-44.11-2.1-65.67.58a330.63,330.63,0,0,0-62.4,13.87q-10.63,3.48-21,7.69L39.44,92.25c-2,1.14-4,2.29-6,3.47a4.77,4.77,0,0,0-1.62,6.81q1.6,37.46.61,75a4.54,4.54,0,0,0,.94,3.06l-.39.12a5.1,5.1,0,0,1,1.29.92c.06.06.11.14.17.21a4.48,4.48,0,0,1,1,.73q.6.61,1.17,1.26h.15c.92.06,1.83.16,2.75.21h.59c.33-.19.65-.4,1-.62a4.63,4.63,0,0,1,.67-.86,8.51,8.51,0,0,1,2.52-1.67,3.84,3.84,0,0,0-.14-.36,151.66,151.66,0,0,1,24.06-11.67l8.64-3.07c25-8.16,51.95-11.2,77.77-12.63,42.41-2.35,85,1.14,126.91,7.55,10.17,1.55,20.46,3.19,30.51,5.61l9.1,2.44a114.77,114.77,0,0,1,23.28,9.69,4.78,4.78,0,0,0,.81.36l.15.36a5.12,5.12,0,0,1,2.53,1.32l.07.06.05,0c.08,0,.38.14.65.22l.21,0,.77,0c.51,0,1,0,1.52,0l2.68-2.05a.67.67,0,0,0-.11-.18,4.67,4.67,0,0,0,.34-1.13c.8-4.67,1.4-9.35,1.85-14l.78-11.49c.77-17.13-.23-34.32-1.37-51.49a5.58,5.58,0,0,0-.18-1.12c1-2.55.25-5.66-3.2-6.22l-.32-.06.09-.08a4.84,4.84,0,0,1-.64-.13,3,3,0,0,0-.4-.11c-.61-.06-1.23-.13-1.83-.25-.37-.07-.73-.19-1.09-.28l-.76-.17-2.79-.88c-7.24-2.43-13.9-6.26-20.77-9.77l-.87-.42a4.55,4.55,0,0,1-1.26-.58l-.2-.08-.18-.13c-.18-.08-.36-.16-.54-.26M72.6,167.19a30.07,30.07,0,0,1,3.06-1.09Zm272.85.48c-16.26-8.27-34.13-12.23-52.07-15.18-21.49-3.52-43.13-6.33-64.83-8.1-43.39-3.53-87.71-3-130.5,5.69-19.32,3.91-38.3,10-55.47,19.73q.66-33.69-.79-67.37A321.34,321.34,0,0,1,155.5,63c21.05-3.08,43.17-4.62,64.37-2.28,22,2.44,43.72,11,64.87,17.27,11.74,3.51,23.43,6.86,34.38,12.48,8.55,4.39,16.95,9.24,26.29,11.55C346.86,123.82,348.21,145.9,345.45,167.67Z"/></g></g></svg>